<?xml version="1.0" encoding="UTF-8"?>
<!DOCTYPE svg PUBLIC "-//W3C//DTD SVG 1.1//EN" "http://www.w3.org/Graphics/SVG/1.1/DTD/svg11.dtd">
<svg xmlns="http://www.w3.org/2000/svg" version="1.1" width="96px" height="96px" style="shape-rendering:geometricPrecision; text-rendering:geometricPrecision; image-rendering:optimizeQuality; fill-rule:evenodd; clip-rule:evenodd" xmlns:xlink="http://www.w3.org/1999/xlink">
<g><path style="opacity:1" fill="#41a6df" d="M 43.5,3.5 C 46.1873,3.33591 48.854,3.50258 51.5,4C 61.0023,9.91889 70.669,15.5856 80.5,21C 83,22.1667 84.8333,24 86,26.5C 86.966,41.2601 86.6326,55.9267 85,70.5C 72.8787,78.4774 60.3787,85.8107 47.5,92.5C 35.3694,85.9336 23.3694,79.1003 11.5,72C 10.2986,71.0975 9.46524,69.9308 9,68.5C 8.03403,53.7399 8.36737,39.0733 10,24.5C 21.1467,17.35 32.3134,10.35 43.5,3.5 Z"/></g>
<g><path style="opacity:1" fill="#000001" d="M 45.5,7.5 C 47.6547,7.37201 49.6547,7.87201 51.5,9C 61.1667,14.8333 70.8333,20.6667 80.5,26.5C 81.8333,40.5 81.8333,54.5 80.5,68.5C 69.7347,75.2707 58.7347,81.6041 47.5,87.5C 36.3742,81.4355 25.3742,75.1021 14.5,68.5C 13.1667,54.5 13.1667,40.5 14.5,26.5C 25.0642,20.3922 35.3975,14.0588 45.5,7.5 Z"/></g>
</svg>
